Season 8 Episode 6 of 10

Reality programme following a group of people in Essex, with each episode filmed just a few days before transmission

The Only Way Is Essex is a British BAFTA award-winning reality television show based in Essex, England.
It shows "real people in modified situations, saying unscripted lines but in a structured way."
The show is filmed just a few days in advance.






General
Complete name            : The.Only.Way.Is.Essex.S08E06.PDTV.x264-W33D.mp4
Format                                   : MPEG-4
Format profile                           : Base Media
Codec ID                                 : isom
File size                                : 214 MiB
Duration                                 : 32mn 37s
Overall bit rate mode                    : Variable
Overall bit rate                         : 917 Kbps
Part/Position                            : 8
Track name/Position                      : 6

Video
ID                                       : 1
Format                                   : AVC
Format/Info                              : Advanced Video Codec
Format profile                           : High@L3.1
Format settings, CABAC                   : Yes
Format settings, ReFrames                : 4 frames
Codec ID                                 : avc1
Codec ID/Info                            : Advanced Video Coding
Duration                                 : 32mn 37s
Bit rate                                 : 770 Kbps
Maximum bit rate                         : 3 597 Kbps
Width                                    : 704 pixels
Height                                   : 400 pixels
Display aspect ratio                     : 16:9
Frame rate mode                          : Constant
Frame rate                               : 25.000 fps
Color space                              : YUV
Chroma subsampling                       : 4:2:0
Bit depth                                : 8 bits
Scan type                                : Progressive
Bits/(Pixel*Frame)                       : 0.109
Stream size                              : 180 MiB (84%)
Writing library                          : x264 core 129 r2245 bc13772


Audio
ID                                       : 2
Format                                   : AAC
Format/Info                              : Advanced Audio Codec
Format profile                           : LC
Codec ID                                 : 40
Duration                                 : 32mn 37s
Bit rate mode                            : Variable
Bit rate                                 : 138 Kbps
Maximum bit rate                         : 153 Kbps
Channel(s)                               : 2 channels
Channel positions                        : Front: L R
Sampling rate                            : 48.0 KHz
Compression mode                         : Lossy
Stream size                              : 32.2 MiB (15%)
Language                                 : English